<svg width="33" height="33" viewBox="0 0 33 33" fill="none" xmlns="http://www.w3.org/2000/svg">
<g id="flag-for-flag-malaysia-svgrepo-com" clip-path="url(#clip0_864_11830)">
<path id="Vector" d="M32.5 24.2855C32.5 25.2285 32.1254 26.1329 31.4586 26.7997C30.7918 27.4665 29.8874 27.8411 28.9444 27.8411H4.05556C3.11256 27.8411 2.20819 27.4665 1.5414 26.7997C0.874602 26.1329 0.5 25.2285 0.5 24.2855V8.28554C0.5 7.34254 0.874602 6.43817 1.5414 5.77138C2.20819 5.10458 3.11256 4.72998 4.05556 4.72998H28.9444C29.8874 4.72998 30.7918 5.10458 31.4586 5.77138C32.1254 6.43817 32.5 7.34254 32.5 8.28554V24.2855Z" fill="#DD2E44"/>
<path id="Vector_2" d="M0.993333 26.0634H32.0076C32.3265 25.525 32.4965 24.9114 32.5 24.2856H0.5C0.5 24.9363 0.687556 25.538 0.993333 26.0634ZM0.5 20.73H32.5V22.5078H0.5V20.73ZM0.5 17.1745H32.5V18.9523H0.5V17.1745ZM0.5 13.6189H32.5V15.3967H0.5V13.6189ZM0.5 10.0634H32.5V11.8411H0.5V10.0634ZM0.993333 6.50781C0.673553 7.04592 0.503243 7.65965 0.5 8.28559H32.5C32.5 7.63492 32.3124 7.03226 32.0067 6.50781H0.993333Z" fill="#EEEEEE"/>
<path id="Vector_3" d="M16.5 4.72998H4.05556C3.11256 4.72998 2.20819 5.10458 1.5414 5.77138C0.874602 6.43817 0.5 7.34254 0.5 8.28554L0.5 17.1744H16.5V4.72998Z" fill="#010066"/>
<path id="Vector_4" d="M8.97472 15.604C7.7568 15.5803 6.59675 15.0799 5.74376 14.2102C4.89077 13.3406 4.41289 12.1711 4.41277 10.9529C4.41266 9.73476 4.89031 8.56514 5.74313 7.69532C6.59596 6.82549 7.75591 6.32485 8.97383 6.30092C9.60939 6.30092 10.2156 6.4307 10.7676 6.66092C9.85452 5.98392 8.74785 5.61867 7.61117 5.61914C6.19668 5.61914 4.84012 6.18104 3.83993 7.18124C2.83974 8.18143 2.27783 9.53799 2.27783 10.9525C2.27783 12.367 2.83974 13.7235 3.83993 14.7237C4.84012 15.7239 6.19668 16.2858 7.61117 16.2858C8.74785 16.2863 9.85452 15.921 10.7676 15.244C10.1998 15.482 9.59034 15.6044 8.97472 15.604Z" fill="#FFCC4D"/>
<path id="Vector_5" d="M11.9862 8.13379L12.2831 9.57379L13.1746 8.4049L12.8173 9.83068L14.1284 9.1649L13.1871 10.2947L14.6573 10.2636L13.3195 10.8733L14.6573 11.4831L13.1871 11.452L14.1284 12.5818L12.8173 11.916L13.1746 13.3427L12.2831 12.1729L11.9862 13.6138L11.6893 12.1729L10.7977 13.3427L11.1551 11.916L9.84395 12.5818L10.7844 11.452L9.31506 11.4831L10.6528 10.8733L9.31506 10.2636L10.7844 10.2947L9.84395 9.1649L11.1551 9.83068L10.7977 8.4049L11.6893 9.57379L11.9862 8.13379Z" fill="#FFCC4D"/>
</g>
<defs>
<clipPath id="clip0_864_11830">
<rect width="32" height="32" fill="white" transform="translate(0.5 0.285645)"/>
</clipPath>
</defs>
</svg>
