<svg width="33" height="33" viewBox="0 0 33 33" fill="none" xmlns="http://www.w3.org/2000/svg">
<g id="united-kingdom-uk-svgrepo-com 1" clip-path="url(#clip0_864_11890)">
<path id="Vector" d="M30.1034 5.80273H2.89656C1.57294 5.80273 0.5 6.87567 0.5 8.1993V24.3717C0.5 25.6953 1.57294 26.7683 2.89656 26.7683H30.1034C31.427 26.7683 32.5 25.6954 32.5 24.3717V8.1993C32.5 6.87567 31.4271 5.80273 30.1034 5.80273Z" fill="#41479B"/>
<path id="Vector_2" d="M32.4668 7.80317C32.2779 6.66823 31.292 5.80273 30.1034 5.80273H29.4799L19.2586 12.4994V5.8028H13.7414V12.4995L3.52012 5.8028H2.89656C1.708 5.8028 0.722062 6.66823 0.533188 7.80323L9.26931 13.527H0.5V19.0442H9.26931L0.533188 24.7679C0.722062 25.9028 1.708 26.7683 2.89656 26.7683H3.52012L13.7414 20.0716V26.7683H19.2586V20.0716L29.4799 26.7683H30.1034C31.292 26.7683 32.2779 25.9029 32.4668 24.7679L23.7307 19.0441H32.5V13.5269H23.7307L32.4668 7.80317Z" fill="#F5F5F5"/>
<g id="Group">
<path id="Vector_3" d="M18.1552 5.80273H14.8448V14.6303H0.5V17.9407H14.8448V26.7682H18.1552V17.9407H32.5V14.6303H18.1552V5.80273Z" fill="#FF4B55"/>
<path id="Vector_4" d="M2.0496 26.6136L13.711 19.0439H11.6843L1.07654 25.9297C1.3361 26.2326 1.66966 26.47 2.0496 26.6136Z" fill="#FF4B55"/>
<path id="Vector_5" d="M22.1493 19.0439H20.1226L31.4173 26.3755C31.7334 26.1679 31.9971 25.8876 32.1852 25.5583L22.1493 19.0439Z" fill="#FF4B55"/>
<path id="Vector_6" d="M0.753052 7.12794L10.6112 13.5271H12.6379L1.46718 6.27588C1.16724 6.49913 0.921802 6.791 0.753052 7.12794Z" fill="#FF4B55"/>
<path id="Vector_7" d="M21.2854 13.5269L31.9126 6.62846C31.6502 6.32652 31.314 6.09052 30.9314 5.94971L19.2587 13.5269H21.2854Z" fill="#FF4B55"/>
</g>
</g>
<defs>
<clipPath id="clip0_864_11890">
<rect width="32" height="32" fill="white" transform="translate(0.5 0.285645)"/>
</clipPath>
</defs>
</svg>
